<?xml version="1.0" encoding="UTF-8" standalone="no"?>
<!-- Generator: Adobe Illustrator 18.0.0, SVG Export Plug-In . SVG Version: 6.00 Build 0)  -->

<svg
   xmlns:dc="http://purl.org/dc/elements/1.1/"
   xmlns:cc="http://creativecommons.org/ns#"
   xmlns:rdf="http://www.w3.org/1999/02/22-rdf-syntax-ns#"
   xmlns:svg="http://www.w3.org/2000/svg"
   xmlns="http://www.w3.org/2000/svg"
   xmlns:sodipodi="http://sodipodi.sourceforge.net/DTD/sodipodi-0.dtd"
   xmlns:inkscape="http://www.inkscape.org/namespaces/inkscape"
   version="1.1"
   id="Layer_1"
   x="0px"
   y="0px"
   viewBox="0 0 45 82"
   enable-background="new 0 0 365 560"
   xml:space="preserve"
   sodipodi:docname="map-marker.svg"
   width="45"
   height="82"
   inkscape:version="0.92.4 (5da689c313, 2019-01-14)"><metadata
   id="metadata11"><rdf:RDF><cc:Work
       rdf:about=""><dc:format>image/svg+xml</dc:format><dc:type
         rdf:resource="http://purl.org/dc/dcmitype/StillImage" /><dc:title></dc:title></cc:Work></rdf:RDF></metadata><defs
   id="defs9"><marker
     inkscape:stockid="Arrow1Lstart"
     orient="auto"
     refY="0"
     refX="0"
     id="Arrow1Lstart"
     style="overflow:visible"
     inkscape:isstock="true"><path
       id="path824"
       d="M 0,0 5,-5 -12.5,0 5,5 Z"
       style="fill-rule:evenodd;stroke:#000000;stroke-width:1.00000003pt"
       transform="matrix(0.8,0,0,0.8,10,0)"
       inkscape:connector-curvature="0" /></marker></defs><sodipodi:namedview
   pagecolor="#ffffff"
   bordercolor="#666666"
   borderopacity="1"
   objecttolerance="10"
   gridtolerance="10"
   guidetolerance="10"
   inkscape:pageopacity="0"
   inkscape:pageshadow="2"
   inkscape:window-width="1920"
   inkscape:window-height="1001"
   id="namedview7"
   showgrid="false"
   fit-margin-top="0"
   fit-margin-left="0"
   fit-margin-right="0"
   fit-margin-bottom="0"
   inkscape:zoom="7.2407734"
   inkscape:cx="13.01073"
   inkscape:cy="40.368629"
   inkscape:window-x="-9"
   inkscape:window-y="-9"
   inkscape:window-maximized="1"
   inkscape:current-layer="Layer_1" />

<path
   style="display:inline;opacity:1;fill:#ff4646;fill-opacity:1;stroke:#d73534;stroke-width:2.72547889;stroke-miterlimit:4;stroke-dasharray:none;stroke-opacity:1"
   d="M 6.7345632,8.6770973 C 3.3829278,12.421362 1.2835752,17.875707 1.3650902,23.006084 1.5353154,33.727051 6.151965,37.785489 13.534828,52.540885 c 2.659443,6.492961 5.43511,13.363344 8.074998,24.742162 0.36688,1.678459 0.724671,3.237511 0.890173,3.372589 0.165428,0.13523 0.523303,-1.429422 0.890179,-3.107883 C 26.030068,66.168934 28.805735,59.304019 31.465179,52.81106 38.848044,38.055662 43.464642,33.997197 43.634915,23.27623 43.716436,18.145854 41.611887,12.686071 38.260252,8.9418067 34.431557,4.6646128 28.656718,1.4991789 22.499999,1.36681 16.34329,1.2343573 10.563249,4.3999031 6.7345632,8.6770973 Z"
   id="path4337-3"
   inkscape:connector-curvature="0"
   sodipodi:nodetypes="sscccccsscs"
   inkscape:label="google" /><path
   inkscape:connector-curvature="0"
   id="path3733"
   style="display:inline;fill:#f4f4f4;fill-opacity:1;stroke:none;stroke-width:0.88249588;stroke-miterlimit:4;stroke-dasharray:none;stroke-opacity:1"
   d="m 21.868815,40.766329 c -0.01425,0 -0.02812,0.363231 -0.03329,0.808377 -0.011,0.893089 -0.01425,0.915859 -0.195606,1.121525 -0.249194,0.281761 -0.676634,0.453513 -1.58281,0.633783 -0.611662,0.124008 -0.960277,0.214127 -1.274601,0.329654 -0.274658,0.101375 -0.61416,0.281577 -0.679276,0.357638 -0.09354,0.115498 -0.558175,0.194467 -1.628577,0.284628 -0.73627,0.06185 -1.067233,0.14094 -1.494836,0.360685 -0.229366,0.115526 -0.388171,0.247681 -0.388171,0.318156 0,0.03384 1.093112,0.03918 7.957344,0.03918 6.864221,0 7.957337,-0.0056 7.957337,-0.03918 0,-0.112695 -0.413459,-0.368769 -0.792913,-0.492761 -0.334138,-0.107053 -0.54377,-0.14092 -1.231882,-0.200088 -1.101541,-0.09563 -1.328153,-0.140756 -1.532026,-0.304123 -0.322839,-0.25638 -0.883529,-0.448153 -1.908633,-0.653819 -0.906176,-0.180284 -1.333637,-0.352049 -1.582836,-0.633785 -0.178345,-0.202877 -0.184279,-0.236918 -0.195599,-1.022977 -0.01,-0.577561 -0.01576,-0.709834 -0.05066,-0.709834 -0.09355,0 -0.926121,-0.115589 -1.110177,-0.155077 a 3.7405215,3.7214199 0 0 0 -0.232306,-0.04218 z m -0.02812,-3.980863 v 0.915424 0.915926 l 0.226248,0.10407 c 0.268985,0.121132 0.951964,0.295849 1.170027,0.298647 0.01102,0 0.01969,-0.495616 0.01969,-1.098512 v -1.09902 h -0.600351 c -0.331321,0 -0.651315,-0.0087 -0.707949,-0.01738 z m -3.027362,-1.059496 -0.02816,0.146602 c -0.0736,0.366269 -0.09894,0.695866 -0.09894,1.21707 0,0.529632 0.0061,0.577563 0.07637,0.811378 0.320029,1.036779 1.200674,1.786143 2.639206,2.242554 0.713613,0.228191 1.265837,0.310068 3.624698,0.538254 0.809883,0.07875 0.89179,0.09263 1.050363,0.166108 0.09635,0.04512 0.224101,0.124236 0.283572,0.180599 0.203868,0.180301 0.322781,0.245131 0.45303,0.245131 0.09357,0 0.129958,-0.01418 0.163895,-0.06189 0.05962,-0.08435 0.0568,-0.157782 -0.01577,-0.352177 -0.14727,-0.39727 -0.741993,-0.791685 -1.509408,-1.002986 -0.48991,-0.135236 -0.739204,-0.177867 -2.279705,-0.389175 -0.860879,-0.115494 -1.373514,-0.292718 -1.809603,-0.630798 -0.617328,-0.473308 -0.937205,-1.135191 -1.04481,-2.163509 l -0.01971,-0.194595 -0.245839,-0.09291 c -0.334391,-0.129662 -0.725526,-0.327041 -1.005869,-0.507349 z m 2.526072,-3.411594 c -0.01424,0.0029 -0.152946,0.08717 -0.308733,0.191607 a 6.9705503,6.9349542 0 0 0 -0.506813,0.369185 l -0.218246,0.177084 0.01778,0.129585 c 0.02566,0.191539 0.122065,0.36627 0.297666,0.543726 0.240707,0.239476 0.260389,0.245126 0.404793,0.115534 0.0678,-0.05876 0.169748,-0.140811 0.229306,-0.183083 l 0.104559,-0.0784 v -0.634316 c 0,-0.346528 -0.01,-0.630791 -0.01971,-0.630791 z m 0.01966,-3.521648 -0.06196,0.0025 c -0.03702,0 -0.161761,0.01994 -0.283581,0.04275 -1.404547,0.250721 -2.698713,1.335491 -3.16311,2.642738 -0.181223,0.507086 -0.209496,1.017053 -0.09897,1.707293 0.198217,1.250891 1.050774,2.157703 2.588415,2.75779 0.846704,0.332435 1.622623,0.482239 2.477811,0.482239 2.004902,0 4.126041,-0.952267 5.003895,-2.251052 0.317157,-0.464871 0.433117,-0.850837 0.413273,-1.355133 -0.02855,-0.645169 -0.277527,-1.098835 -0.761744,-1.394653 -0.178349,-0.109886 -0.639864,-0.270343 -0.959843,-0.335174 -0.685289,-0.138008 -1.41056,-0.06471 -2.667875,0.267603 l -0.107599,0.02791 v 0.647796 c 0,0.524041 0.01,0.648074 0.03697,0.6368 0.152965,-0.05876 0.560385,-0.115531 0.826595,-0.115531 0.387941,-0.0029 0.552498,0.03919 0.696893,0.183079 0.136002,0.135232 0.180984,0.284931 0.180984,0.603287 -0.0042,0.281707 -0.06501,0.458863 -0.237831,0.675812 -0.274655,0.338078 -0.869406,0.611569 -1.616997,0.73834 -0.339814,0.05875 -1.384672,0.06744 -1.698982,0.01417 -0.770255,-0.13245 -1.285765,-0.354798 -1.656736,-0.723841 -0.365277,-0.36062 -0.478607,-0.729869 -0.416325,-1.358139 0.05962,-0.605723 0.209778,-0.994699 0.504308,-1.304609 0.209561,-0.219735 0.430257,-0.355028 0.758749,-0.467717 l 0.243331,-0.0814 z M 34.617963,21.74943 c -2.225775,0 -4.052642,0.0085 -4.061132,0.01737 -0.01106,0.0087 -0.0063,0.05577 0.01,0.104083 0.01423,0.05045 0.05393,0.228373 0.08801,0.400161 0.05393,0.270464 0.06215,0.402906 0.06479,1.056497 0,0.588803 -0.01103,0.81426 -0.05064,1.065003 -0.09355,0.580355 -0.27741,1.239252 -0.475633,1.701297 -0.04232,0.107054 -0.07091,0.191605 -0.06251,0.191605 0.02566,0 0.367972,-0.256016 1.121235,-0.836385 1.095905,-0.848013 1.554834,-1.152278 2.288252,-1.515713 1.02229,-0.512739 1.976277,-0.791627 3.026866,-0.887417 0.730597,-0.06753 1.339432,-0.304477 1.769862,-0.684818 0.158576,-0.138027 0.325832,-0.419971 0.325832,-0.546759 v -0.06442 z m -28.1820309,0 v 0.0644 c 0,0.126808 0.1672646,0.40873 0.3258335,0.546761 0.4304349,0.380362 1.0392652,0.6172 1.7698538,0.684816 1.0505955,0.09563 2.0045926,0.374653 3.0268706,0.887415 0.702291,0.349377 1.226158,0.689956 2.123836,1.38865 1.432875,1.112845 2.126568,1.577785 3.061057,2.045455 1.138372,0.571914 2.28833,0.927082 3.582439,1.113024 0.356793,0.05044 0.617112,0.07556 1.296739,0.13207 l 0.218244,0.0172 v 5.651539 l 0.212171,0.03087 c 0.229372,0.03382 0.968479,0.04216 1.115738,0.01416 l 0.08802,-0.01736 v -5.961271 l 0.149776,-0.03381 c 0.467258,-0.109914 1.099141,-0.388454 1.484269,-0.653305 0.659809,-0.453569 1.092808,-0.966474 1.480744,-1.755317 0.402101,-0.811389 0.594817,-1.68461 0.594817,-2.68476 0,-0.411349 -0.03397,-0.614456 -0.144404,-0.831388 -0.09053,-0.180294 -0.271784,-0.402775 -0.430368,-0.526709 L 26.249842,21.74941 Z M 20.091072,8.9694546 c -0.121137,0.00182 -0.228936,0.0079 -0.311724,0.01762 -1.073253,0.1352305 -2.103937,0.6648527 -2.899653,1.4846824 -0.758922,0.786027 -1.17829,1.679029 -1.266073,2.693259 -0.104737,1.219901 0.03664,2.169485 0.435936,2.949873 0.348301,0.673339 0.982778,1.284805 1.903105,1.831355 1.231809,0.732516 2.60548,1.278784 5.105946,2.039457 1.565968,0.473314 2.273617,0.724318 2.811662,0.991969 0.801384,0.400047 1.271404,0.862088 1.483776,1.46218 0.07949,0.222596 0.07966,0.236341 0.07966,0.844896 -0.0063,1.77773 -0.467434,3.048298 -1.472705,4.056897 -0.563494,0.560616 -1.214661,0.980802 -1.959433,1.254088 l -0.263467,0.09538 v 1.819855 h 0.088 c 0.1444,0 0.759097,-0.132279 1.118738,-0.242091 0.894833,-0.267658 1.803684,-0.749228 2.559764,-1.35213 0.311484,-0.247929 0.897512,-0.834268 1.143869,-1.138531 0.84672,-1.062131 1.356567,-2.202891 1.549125,-3.47913 0.0764,-0.49865 0.08191,-1.321404 0.01425,-1.746823 -0.294512,-1.850968 -1.512193,-3.056675 -3.839898,-3.803256 -0.671135,-0.214087 -1.333745,-0.360681 -2.746807,-0.605789 -0.761756,-0.132362 -1.002333,-0.183372 -1.614019,-0.341169 -3.112112,-0.797308 -4.644056,-2.239522 -4.64689,-4.375048 0,-1.572055 0.874921,-2.831486 2.160541,-3.101951 0.271845,-0.05875 0.889343,-0.05875 1.226337,0 0.736256,0.129592 1.276691,0.428418 1.724109,0.952452 0.240707,0.287362 0.456199,0.740739 0.512865,1.076002 0.02277,0.140884 -0.02277,0.205755 -0.297162,0.422708 -0.427618,0.338077 -0.509804,0.478964 -0.532461,0.873406 -0.01971,0.411346 0.110454,0.856453 0.376575,1.270595 0.232233,0.360616 0.776022,1.078934 0.971409,1.284605 0.23783,0.247931 0.40204,0.340984 0.591822,0.338132 0.353982,-0.0087 0.631444,-0.3803 0.838165,-1.132522 0.03949,-0.146528 0.138501,-0.501505 0.217692,-0.788869 0.237831,-0.856468 0.246388,-1.110285 0.06247,-1.504704 -0.116153,-0.247925 -0.237717,-0.371738 -0.489739,-0.495732 -0.130336,-0.06753 -0.249142,-0.149249 -0.29165,-0.205581 C 24.395677,12.36512 24.30469,12.153304 24.231063,11.944856 24.012801,11.316673 23.826291,10.936602 23.528935,10.525274 22.953963,9.7308319 22.171957,9.2323775 21.19782,9.0436181 20.934441,8.9930911 20.45447,8.9640771 20.091155,8.9695751 Z"
   inkscape:label="pharmacie" /></svg>